<svg width="160" height="160" viewBox="0 0 160 160" fill="none" xmlns="http://www.w3.org/2000/svg">
<mask id="mask0_9989_17632" style="mask-type:alpha" maskUnits="userSpaceOnUse" x="4" y="6" width="154" height="148">
<path d="M157.077 59.049C157.156 59.0995 157.149 59.2168 157.065 59.2585C156.41 59.5851 155.761 59.9283 155.09 60.226C149.936 62.5147 145.003 65.1797 140.813 69.009C139.38 70.3179 138.084 71.8037 136.871 73.3245C135.721 74.7654 135.336 76.5305 135.354 78.3629C135.354 78.3975 135.355 78.432 135.357 78.4666C135.389 79.2288 136.096 79.7914 136.859 79.7914H140.774C141.61 79.7914 142.299 80.4732 142.182 81.3005C141.919 83.1615 141.169 84.7917 139.994 86.1885C138.157 88.3699 137.408 90.9627 136.542 93.5654C135.279 97.3598 135.194 101.271 135.494 105.153C135.806 109.199 134.308 112.425 131.892 115.434C129.995 117.798 128.158 120.211 126.271 122.584C124.336 125.018 123.615 127.765 123.822 130.854C124.089 134.813 125.018 138.63 125.884 142.484C126.59 145.63 126.822 148.881 127.249 152.087C127.327 152.664 126.609 153.046 126.069 152.828C125.552 152.619 125.079 152.415 124.668 152.122C122.26 150.404 120.777 147.956 119.564 145.326C119.03 144.167 118.51 143.001 117.992 141.846C117.829 141.483 117.526 141.203 117.159 141.049C116.061 140.588 115.558 140.221 115.179 139.562C114.871 139.027 114.357 138.617 113.739 138.622C111.401 138.64 109.079 138.917 106.837 139.694C102.479 141.202 98.1129 142.696 93.8173 144.364C89.0299 146.223 84.0753 146.6 79.0882 145.999C74.3133 145.423 69.5933 144.386 64.8458 143.581C63.2533 143.312 61.6409 143.152 60.041 142.91C59.6441 142.85 59.2497 142.696 58.8853 142.519C56.0099 141.118 53.1694 139.642 50.2665 138.301C47.119 136.847 44.6878 137.884 43.5222 141.11C43.043 142.436 42.7584 143.83 42.2941 145.161C41.5853 147.193 40.844 149.22 40.0277 151.209C39.5949 152.266 38.87 152.937 37.8523 153.297C36.9813 153.604 36.2036 152.782 36.2761 151.861C36.3481 150.946 36.4264 150.05 36.5782 149.168C37.0225 146.592 37.7713 144.059 38.0434 141.469C38.313 138.881 38.1807 136.249 38.1507 133.639C38.1457 133.26 37.7963 132.821 37.4993 132.517C35.3701 130.353 33.241 128.189 31.0595 126.08C28.7507 123.846 26.5067 121.537 24.9642 118.715C23.5614 116.15 21.3699 115.783 18.9413 116.257C15.0325 117.02 11.1711 118.012 7.28977 118.915C6.31976 119.141 5.35628 119.393 4.39119 119.634C4.27144 119.664 4.14679 119.608 4.08931 119.499C4.0359 119.397 4.05301 119.273 4.13169 119.19C4.59484 118.698 5.0274 118.236 5.54754 117.803C8.48537 115.36 11.4906 112.994 14.3935 110.511C16.1257 109.027 17.7407 107.402 19.3431 105.776C19.6651 105.45 19.8673 104.824 19.8348 104.355C19.0311 92.7427 21.7318 81.8457 26.5592 71.3874C28.5082 67.1633 30.5291 62.9718 32.5711 58.6687C32.8333 58.1161 33.4259 57.8345 33.9988 57.6202C35.2434 57.1546 35.5375 55.6175 36.1614 54.4547C36.5405 53.7478 36.8407 52.9989 37.1448 52.2189C37.4059 51.5489 38.2462 51.356 38.7674 51.8515C39.169 52.2333 39.8132 52.239 40.2249 51.868C40.7311 51.4118 41.2257 50.9639 41.5978 50.4309C43.4049 47.8481 45.1821 45.2404 46.8269 42.5554C47.5857 41.3164 48.4294 40.5385 49.8821 40.1322C54.7049 38.7831 59.4821 37.2783 64.2396 35.8386C64.4241 35.7828 64.6562 35.6868 64.6761 35.4951C65.0305 32.6381 65.2627 32.3988 68.1531 31.9251C71.2307 31.4215 73.1701 29.7761 73.6893 26.6648C74.2059 23.561 74.3582 20.3948 74.6602 17.2536C74.9123 14.6085 75.0995 11.9559 75.4115 9.31823C75.5469 8.17095 75.8085 7.44535 76.33 6.88634C76.9087 6.26607 77.8997 6.62505 78.2931 7.37663C78.7005 8.15513 79.097 8.93654 79.3627 9.7595C80.3686 12.8783 81.1674 16.0619 82.1458 19.1907C82.987 21.8782 83.8731 24.5582 84.8915 27.1833C86.2543 30.701 89.0424 32.1919 92.7015 32.2542C94.1168 32.2791 95.5321 32.329 96.9448 32.2666C98.6746 32.1918 100.282 32.5708 101.667 33.563C105.414 36.2505 109.195 38.8956 112.8 41.7651C115.38 43.8213 117.749 46.1444 120.299 48.4776C120.682 48.8285 121.222 48.9249 121.741 48.9218C122.62 48.9167 123.437 49.2895 124.247 49.7916C124.878 50.1833 125.078 51.0024 124.752 51.6701C124.639 51.9012 124.526 52.1329 124.412 52.3666C124.024 53.1642 124.409 54.1183 125.185 54.5499C127.423 55.7963 129.126 57.66 130.993 59.3111C131.74 59.9693 132.541 60.5701 133.332 61.1759C134.822 62.3177 136.472 62.5546 138.284 62.0983C141.789 61.2158 145.29 60.3208 148.82 59.5554C151.557 58.9614 154.149 58.6329 157.029 59.0312C157.046 59.0336 157.062 59.0397 157.077 59.049ZM83.0256 135.183C83.0265 135.182 83.0276 135.182 83.0287 135.182C85.8961 135.182 88.7634 135.214 91.6308 135.162C92.397 135.147 93.2407 135.035 93.9121 134.696C97.5064 132.883 101.123 131.106 104.6 129.086C108.187 127.005 108.489 125.97 107.426 121.914C106.467 118.261 104.697 114.958 102.825 111.727C100.611 107.903 98.8842 103.986 98.7744 99.459C98.717 97.0831 98.0331 94.8045 96.9024 92.6729C95.9015 90.7857 94.3514 89.8932 92.2623 89.8658C86.4839 89.791 80.8254 90.4816 75.3217 92.3438C61.0943 97.1629 52.428 108.865 52.1884 123.477C52.131 127.002 53.6586 129.395 56.7412 130.791C58.8903 131.766 61.1292 132.576 63.3856 133.27C69.7874 135.236 76.3963 135.419 83.0227 135.184C83.0238 135.184 83.0249 135.184 83.0256 135.183ZM32.2573 97.5474C32.2575 97.547 32.2578 97.5468 32.2582 97.5468C32.8395 97.4994 33.2487 97.4969 33.6454 97.4321C38.6974 96.6069 43.4049 94.7596 47.9527 92.5009C49.3929 91.7854 50.7407 90.858 52.0486 89.9131C52.5479 89.5517 52.9697 88.9209 53.1594 88.3276C56.9708 76.4831 60.7448 64.6263 64.5213 52.7719C64.6918 52.2348 64.2994 51.6644 63.736 51.6504C62.528 51.6205 61.4557 52.0483 60.4253 52.6572C56.0099 55.2674 51.9014 58.2989 48.1648 61.8066C42.6885 66.9448 38.0584 72.6962 35.3127 79.7939C33.1268 85.4441 32.3279 91.3186 32.2552 97.5469C32.2551 97.5481 32.2568 97.5485 32.2573 97.5474ZM124.765 78.11C124.765 78.1104 124.765 78.1111 124.764 78.1111C124.363 78.111 123.991 78.0563 123.64 78.1211C121.845 78.4402 120.036 78.7069 118.268 79.1482C114.469 80.0981 110.815 81.4518 107.408 83.4138C105.501 84.5132 105.159 85.2362 105.541 87.3827C105.678 88.158 105.818 88.9409 106.065 89.6863C107.595 94.3308 109.011 99.0202 110.75 103.585C112.268 107.566 114.135 111.418 115.915 115.295C115.972 115.419 116.039 115.539 116.114 115.656C116.69 116.561 118.116 116.367 118.612 115.415C120.248 112.273 121.494 109.206 122.312 105.958C124.573 96.9859 124.935 87.8389 124.855 78.6496C124.855 78.4955 124.806 78.3389 124.763 78.1106C124.763 78.11 124.764 78.1096 124.765 78.11ZM65.662 83.8105C65.662 83.8117 65.663 83.8128 65.6642 83.813C65.9252 83.8479 66.1218 83.8974 66.3185 83.8974C70.3571 83.8999 74.3682 83.6207 78.2969 82.6011C80.9677 81.908 83.5012 80.9033 85.8 79.3476C87.5922 78.1335 88.4184 76.4682 88.1014 74.3342C87.8942 72.9455 87.6521 71.5345 87.2003 70.2132C84.9788 63.7387 81.4644 57.8976 78.0548 52.009C77.5332 51.1065 76.6296 51.1339 76.0705 52.009C75.7834 52.4602 75.5488 52.9589 75.3716 53.4649C74.5329 55.8508 73.6768 58.2316 72.908 60.6399C70.5318 68.104 68.193 75.5832 65.8442 83.0548C65.7719 83.2816 65.7319 83.5208 65.6621 83.8099C65.662 83.8101 65.662 83.8103 65.662 83.8105ZM90.7122 49.8469C90.7122 49.8462 90.7114 49.8459 90.7109 49.8464L90.4162 50.1548C90.3725 50.2005 90.3575 50.2665 90.377 50.3266C92.1052 55.6494 93.7586 60.9988 95.5994 66.2841C96.2883 68.2636 97.3492 70.1284 98.37 71.9732C99.3011 73.6585 100.781 74.2768 102.766 74.0973C107.503 73.6717 111.407 71.2697 115.402 69.2452C115.852 69.0171 116.177 68.584 116.188 68.0796C116.224 66.5299 115.727 65.2285 114.806 64.0678C114.11 63.1928 113.409 62.2953 112.577 61.5573C107.086 56.6735 100.864 52.9913 93.9471 50.5107C92.9214 50.1418 91.7934 50.062 90.7128 49.8477C90.7125 49.8476 90.7122 49.8473 90.7122 49.8469ZM40.8401 120.452C41.2306 120.34 41.4882 119.988 41.5997 119.598C42.655 115.899 43.7103 112.241 44.7253 108.569C44.7717 108.401 44.8068 108.231 44.8348 108.056C44.9842 107.123 44.1514 106.298 43.2125 106.4C40.3675 106.709 37.7734 107.409 35.5673 109.299C34.6238 110.107 33.8401 111.166 34.0722 112.435C34.6388 115.547 35.9692 118.264 38.7448 120.054C39.3976 120.475 40.0807 120.669 40.8401 120.452Z" fill="white"/>
</mask>
<g mask="url(#mask0_9989_17632)">
<path d="M61.2502 126.272C61.1112 128.195 60.6015 130.188 60.9027 132.018C61.6673 136.652 58.215 136.281 55.6431 136.536C52.8395 136.814 50.4993 139.618 47.3945 138.019C47.5336 137.834 47.6494 137.671 47.7884 137.486C51.4261 134.984 53.3956 130.442 58.215 129.214C59.1418 129.006 59.0954 126.225 61.2502 126.272Z" fill="#FEDAA5"/>
<path d="M2.56111 81.0426C2.56111 55.066 2.56111 29.0893 2.53906 3.11267C2.53906 2.36292 2.69342 2.20856 3.44317 2.20856C55.4626 2.23061 107.504 2.23061 159.524 2.20856C160.273 2.20856 160.428 2.36292 160.428 3.11267C160.406 55.1321 160.406 107.174 160.428 159.193C160.428 159.943 160.273 160.097 159.524 160.097C107.504 160.075 55.4626 160.075 3.44317 160.097C2.69342 160.097 2.53906 159.943 2.53906 159.193C2.56111 133.128 2.56111 107.085 2.56111 81.0426ZM3.99446 88.2093C3.99446 110.812 3.97241 133.415 3.97241 155.996C4.41344 156.856 2.80368 158.686 4.92062 158.686C51.1405 158.73 97.3604 158.73 143.58 158.708C143.977 158.708 144.749 158.157 144.705 158.024C143.889 154.43 146.138 154.673 148.498 154.783C151.056 154.915 153.636 154.761 156.216 154.827C157.142 154.849 157.363 154.584 157.363 153.658C157.318 143.206 157.34 132.775 157.34 122.323C157.318 83.1595 157.318 43.9961 157.296 4.83268C157.12 4.67832 156.966 4.41371 156.789 4.41371C152.048 4.41371 147.329 4.41371 142.588 4.47986C142.345 4.47986 141.882 5.22961 141.882 5.60449C141.838 18.9015 141.882 32.1765 142.059 45.4515C142.103 48.6269 140.361 49.8839 137.869 50.6336C137.031 50.8541 136.281 50.9644 135.443 51.1849C132.246 51.1849 128.938 50.1926 127.593 54.9557C126.733 57.9327 123.955 60.3583 122.036 63.0265C121.132 63.6881 120.316 64.526 119.324 64.9891C114.759 67.1943 110.437 63.7542 105.564 64.4378C100.183 65.1876 96.6482 66.6648 96.4718 72.332C96.4718 72.5967 99.2099 78.0349 94.1407 74.9174C93.9202 74.7851 93.6117 74.9123 93.325 74.9123C89.6424 72.4646 85.2321 74.9784 81.4613 73.1261C81.307 72.8395 81.1526 72.5528 80.9762 72.2661C80.9982 70.7887 81.1305 69.3112 80.9982 67.8558C80.7998 65.805 81.0864 64.6363 83.6444 65.0773C85.166 65.3419 87.6357 65.8491 88.187 64.1732C90.1937 58.1091 93.2148 52.5741 95.8168 46.8187C97.3163 43.4889 93.8542 40.2915 93.4353 36.8955C93.0163 33.6319 90.326 30.8534 91.3624 27.3693C92.8178 22.5621 96.2799 18.9456 99.0805 14.9323C99.3671 14.6456 99.6538 14.3589 99.9625 14.0502C102.366 10.4779 105.167 7.39065 109.489 6.11167C110.15 5.75885 111.606 6.39834 111.385 5.00909C111.209 3.81831 109.952 4.43576 109.246 4.43576C75.4633 4.45781 41.6804 4.52396 7.87552 4.3255C3.92831 4.30345 3.31086 5.67064 3.95036 8.8681C3.95036 34.4258 3.95036 60.0055 3.95036 85.5632C3.97241 86.4452 3.99446 87.3273 3.99446 88.2093ZM120.889 23.6646C120.845 23.6646 120.801 23.6646 120.735 23.6646C120.735 17.8651 120.735 12.0656 120.735 6.26603C120.735 5.62654 121.022 4.81063 119.809 4.83268C118.596 4.85474 118.949 5.71474 118.949 6.31013C118.861 17.6225 118.794 28.935 118.706 40.2474C118.706 41.5043 119.236 42.3202 120.382 42.7612C120.47 42.8053 120.867 42.4305 120.867 42.2761C120.889 36.0576 120.889 29.8611 120.889 23.6646Z" fill="#FCE8EC"/>
<path d="M157.256 4.87671C157.278 44.0401 157.278 83.2036 157.3 122.367C157.3 132.819 157.3 143.25 157.322 153.702C157.322 154.606 157.101 154.893 156.175 154.871C153.595 154.805 151.037 154.937 148.457 154.827C146.076 154.717 143.826 154.474 144.664 158.068C144.709 158.223 143.937 158.752 143.54 158.752C97.3199 158.774 51.1 158.774 4.88008 158.73C2.76314 158.73 4.35084 156.9 3.93187 156.04C4.17443 155.797 4.417 155.554 4.63751 155.312C7.04112 152.644 9.44473 149.975 11.8263 147.307C20.3602 147.175 28.9162 147.131 37.4501 146.734C38.4424 146.69 38.6629 149.887 39.8758 147.197C40.2948 146.271 41.0666 145.521 41.6619 144.683C41.5296 145.301 41.0886 146.094 41.3091 146.513C41.9707 147.726 42.4778 146.359 42.8086 146.116C44.9476 144.396 46.7779 146.337 48.5641 146.778C49.7328 147.065 50.5046 149.093 51.3867 150.372C52.1585 151.497 52.82 152.71 53.5256 153.879C53.5697 152.908 53.658 151.938 53.68 150.99C53.7021 150.108 53.5918 149.226 53.7021 148.344C54.0549 145.565 53.4595 142.963 57.0098 140.868C59.8544 139.192 64.1104 136.987 63.3386 131.893C63.0078 129.732 63.3386 127.483 63.3827 125.256C65.5878 123.668 67.815 122.058 70.0201 120.471C73.1294 117.802 76.7238 116.082 80.6049 114.892C80.7151 114.892 80.8254 114.892 80.9356 114.892C81.112 114.825 81.3105 114.737 81.4869 114.671C85.8531 115.112 85.3459 111.518 86.1177 109.026C91.7409 106.887 98.1358 111.01 103.538 106.821C105.038 105.652 107.045 105.035 108.257 103.689C110.286 101.44 112.403 99.7422 115.512 99.2129C117.232 98.9263 120.011 100.051 120.496 97.8457C121.003 95.5524 120.099 92.9724 119.812 90.5026C120.871 89.1795 121.907 87.8785 122.966 86.5554C123.848 83.821 125.634 85.9159 126.957 85.8718C131.389 85.6733 132.095 81.6159 134.168 79.0579C137.983 74.3389 140.276 68.7157 142.151 63.0706C143.937 57.7562 142.261 52.133 142.261 46.6202C142.283 33.1026 142.261 19.6071 142.283 6.08954C142.283 5.73672 142.459 5.36184 142.547 5.00902C142.812 5.14133 143.077 5.25158 143.319 5.38389C143.143 5.45005 142.944 5.5162 142.768 5.58236C142.834 5.64851 142.878 5.71466 142.944 5.80287C143.055 5.67056 143.187 5.53825 143.297 5.38389C147.994 5.16338 152.625 5.00902 157.256 4.87671Z" fill="#F18928" stroke="#F18928" stroke-width="0.755388"/>
<path d="M3.91016 85.563C3.91016 60.0053 3.91016 34.4256 3.91016 8.86792C4.02041 8.86792 4.15272 8.84587 4.26298 8.84587C17.6703 8.84587 31.0776 8.97817 44.4849 8.75766C48.1454 8.69151 50.6813 9.70587 53.1291 12.3741C55.4665 14.888 58.4214 16.8285 61.1117 19.0116C63.4933 21.1065 62.3907 24.1937 62.3245 26.4209C62.1481 32.8379 62.1481 39.3651 60.0753 45.6277C59.5681 47.1934 59.6342 48.9796 59.105 50.5452C58.0024 53.8529 59.9871 57.5355 57.4512 60.755C55.4224 63.3351 53.9891 66.4002 52.2911 69.2449C50.7916 71.6485 48.6085 73.6772 48.3218 76.7203C48.1675 76.7644 48.0131 76.7865 47.8588 76.8306C44.5951 76.1911 40.692 79.7414 38.0238 75.2649C38.0238 75.2649 37.8474 75.3311 37.8253 75.3752C37.0315 77.867 34.4294 77.9552 32.7314 78.3962C25.2339 80.3588 17.4718 80.2706 9.81995 79.7193C4.88042 79.3665 3.31477 80.9101 4.21888 85.5409C4.13067 85.563 4.02041 85.563 3.91016 85.563Z" fill="#80C9C1" stroke="#80C9C1" stroke-width="0.755388"/>
<path d="M52.3125 69.223C54.0105 66.3783 55.4438 63.3132 57.4725 60.7332C60.0085 57.5136 58.0238 53.831 59.1264 50.5233C59.6556 48.9577 59.5674 47.1935 60.0967 45.6058C62.1475 39.3653 62.1475 32.816 62.3459 26.399C62.4121 24.1498 63.4926 21.0846 61.1331 18.9897C64.3526 20.4672 68.6747 18.6369 71.0342 23.0692C73.0188 26.7959 75.9296 22.121 78.4656 23.0031C78.9286 21.5036 80.2076 20.4672 80.2517 18.5928C80.2958 17.1153 80.7148 13.8738 82.501 14.3368C88.0359 15.7922 93.5708 14.0061 99.0175 14.9984C96.217 19.0118 92.7329 22.6282 91.2995 27.4354C90.2631 30.8975 92.9534 33.698 93.3724 36.9617C93.7913 40.3576 97.2534 43.5551 95.7539 46.8848C93.1518 52.6403 90.1308 58.1972 88.1241 64.2393C87.5728 65.9153 85.1031 65.4081 83.5815 65.1434C81.0015 64.7024 80.7369 65.8491 80.9353 67.9219C81.0676 69.3773 80.9353 70.8548 80.9133 72.3322C77.804 72.1779 74.6948 72.1117 71.6075 71.8251C70.6814 71.7368 69.7993 71.1194 68.8952 70.7445C69.3362 69.8625 68.9173 68.4732 70.4168 68.1866C70.5711 68.1645 70.8357 67.6132 70.7696 67.503C69.9096 66.3122 69.0055 65.1655 68.0793 64.0409C68.0573 64.0188 67.528 64.3055 67.3296 64.526C63.3162 69.1568 58.7295 72.1338 52.3125 69.223Z" fill="#95C7DB" stroke="#95C7DB" stroke-width="0.755388"/>
<path d="M99.0393 14.9986C93.5926 14.0284 88.0577 15.7925 82.5228 14.3371C80.7145 13.874 80.3176 17.1156 80.2735 18.593C80.2074 20.4674 78.9504 21.5038 78.4873 23.0033C75.9514 22.1212 73.0406 26.7962 71.056 23.0695C68.6965 18.6371 64.3744 20.4674 61.1549 18.9899C58.4646 16.8068 55.4876 14.8663 53.1722 12.3524C50.7245 9.68421 48.1666 8.66984 44.5281 8.73599C31.0767 8.97856 17.6694 8.84625 4.26206 8.84625C4.9677 7.61137 2.71845 4.94314 5.56309 4.92109C38.8388 4.81083 72.1365 4.83288 105.412 4.92109C106.757 4.92109 108.08 5.73699 109.426 6.17802C105.103 7.43496 102.303 10.5442 99.8993 14.1166C99.6127 14.4032 99.326 14.6899 99.0393 14.9986Z" fill="#87ADD4" stroke="#87ADD4" stroke-width="0.755388"/>
<path d="M95.0273 97.8678C95.2479 95.5965 96.3504 94.4719 98.754 94.2955C101.268 94.1191 99.6802 91.7375 100.342 90.4585C101.863 87.4816 102.9 84.1959 102.745 80.7118C103.716 80.3589 104.752 80.1384 105.612 79.6092C108.611 77.7569 110.75 74.9563 114.609 73.8979C116.726 73.3025 118.887 73.4568 120.872 72.7732C124.51 71.5163 124.334 67.5691 125.944 64.8568C127.928 63.2691 128.832 61.086 129.979 58.8808C131.037 56.8741 129.428 53.0372 133.463 52.8387C134.654 52.7725 135.095 52.1772 135.293 51.1628C136.131 50.9423 136.987 50.7386 137.825 50.5181C139.81 60.2649 135.69 68.2086 128.546 73.6553C123.606 77.404 123.76 81.7923 122.967 86.5113C121.908 87.8344 120.872 89.1354 119.813 90.4585C118.689 92.5975 116.682 91.517 115.05 91.7155C113.595 91.8919 112.139 91.4729 110.794 92.5975C106.274 96.4124 101.025 98.3309 95.0273 97.8678Z" fill="#FEDAA5" stroke="#FEDAA5" stroke-width="0.755388"/>
<path d="M126.012 64.8204C124.402 67.5327 124.547 71.4933 120.909 72.7723C118.924 73.4559 116.754 73.296 114.637 73.8913C110.778 74.9498 108.633 77.7578 105.634 79.6101C104.774 80.1393 103.698 80.3641 102.75 80.7169C99.5968 78.7985 96.4449 76.8216 93.2695 74.9031C93.5562 74.9031 93.9311 74.7708 94.1295 74.9031C99.025 77.9241 96.4008 72.5877 96.4008 72.3231C96.5773 66.6558 100.15 65.1784 105.508 64.4286C110.381 63.745 114.682 67.1851 119.268 64.9799C120.261 64.4948 121.076 63.6789 121.981 63.0173C123.326 63.6127 124.689 64.225 126.012 64.8204Z" fill="#FFF1CF" stroke="#FFF1CF" stroke-width="0.755388" stroke-linejoin="bevel"/>
<path d="M86.1116 108.971C85.3163 111.49 85.8465 115.068 81.4727 114.626C81.3783 114.367 80.9805 114.644 80.9205 114.869C80.81 114.869 80.6438 114.791 80.5334 114.791C79.8707 102.178 80.4124 89.5545 78.3359 77.0295C78.5127 75.0635 79.7497 73.9149 81.4285 73.0975C85.2059 74.9752 89.6239 72.4569 93.3129 74.8868C96.4717 76.8086 99.5672 78.7883 102.748 80.7101C102.903 84.2003 101.928 87.4118 100.404 90.416C99.741 91.6972 101.331 94.0829 98.8132 94.2596C96.4055 94.4143 95.301 95.5629 95.0801 97.8382C92.0538 101.549 89.0716 105.26 86.1116 108.971Z" fill="#A29EA1" stroke="#A29EA1" stroke-width="0.755388"/>
<path d="M3.91016 85.5633C4.02041 85.5633 4.13067 85.5413 4.24093 85.5413C17.7805 86.0264 31.3201 86.6659 44.8377 85.1223C40.9125 90.128 37.0315 94.2957 29.4237 93.6342C21.1985 92.9285 12.819 93.8988 4.5276 94.1634C4.32913 92.1788 4.15272 90.1942 3.95426 88.2095C3.93221 87.3275 3.91016 86.4454 3.91016 85.5633Z" fill="#797AAA" stroke="#797AAA" stroke-width="0.755388"/>
<path d="M122.965 86.5112C123.759 81.7922 123.604 77.404 128.544 73.6552C135.689 68.2085 139.812 60.27 137.805 50.5232C140.297 49.7735 141.929 48.6929 141.885 45.5175C141.709 32.2425 141.819 18.9455 141.841 5.6705C141.841 5.27357 142.282 4.54587 142.547 4.54587C147.288 4.45767 152.007 4.45767 156.748 4.47972C156.924 4.47972 157.078 4.74434 157.255 4.8987C152.624 5.03101 147.993 5.18537 143.362 5.31768C143.098 5.18537 142.833 5.07511 142.591 4.9428C142.502 5.29562 142.326 5.6705 142.326 6.02332C142.304 19.5409 142.326 33.0364 142.304 46.5539C142.282 52.0448 143.98 57.6899 142.194 63.0043C140.297 68.6495 138.026 74.2727 134.211 78.9917C132.138 81.5496 131.433 85.6292 127 85.8056C125.633 85.8717 123.847 83.7768 122.965 86.5112Z" fill="#F8B570"/>
<path d="M81.4926 73.0734C79.8388 73.8893 78.5322 75.1329 78.3338 77.0955C77.4517 77.6909 76.5476 78.3083 75.6655 78.9037C71.2552 78.7714 66.867 78.617 62.4567 78.4847C61.5746 78.3524 60.6926 78.1981 59.8105 78.0657C56.172 75.9709 52.1807 77.0073 48.3438 76.6986C48.6304 73.6555 50.8135 71.6267 52.313 69.2231C58.73 72.1118 63.2947 69.1349 67.3521 64.5041C67.5506 64.2836 68.0798 63.9969 68.1019 64.019C69.028 65.1436 69.9321 66.2903 70.7922 67.481C70.8583 67.5913 70.6157 68.1205 70.4393 68.1646C68.9398 68.4513 69.3809 69.8405 68.9178 70.7226C69.8219 71.0975 70.7039 71.7149 71.6301 71.8031C74.7173 72.0677 77.9141 72.1093 81.0234 72.2637C81.1778 72.5503 81.3383 72.7867 81.4926 73.0734Z" fill="#87ADD4"/>
<path d="M120.928 23.6387C120.928 29.8609 120.895 36.254 120.873 42.4762C120.873 42.6533 120.475 43.0076 120.386 42.9633C119.257 42.5205 118.703 41.7233 118.703 40.439C118.792 29.0796 118.829 17.7094 118.918 6.34992C118.918 5.75206 118.584 4.84244 119.802 4.8203C120.997 4.79816 120.769 5.62076 120.791 6.26291C120.791 12.0866 120.773 17.7929 120.773 23.6165C120.818 23.6387 120.862 23.6387 120.928 23.6387Z" fill="#DDC4E0"/>
<path d="M125.943 64.8789C124.62 64.2835 123.253 63.5778 121.93 62.9824C123.848 60.3142 126.583 57.9106 127.443 54.9336C128.81 50.1926 132.304 51.136 135.48 51.114C135.281 52.1284 134.697 52.7946 133.507 52.8387C129.471 53.0372 131.147 56.8962 130.089 58.9029C128.964 61.1301 127.928 63.2912 125.943 64.8789Z" fill="#F8C9D1" stroke="#F8C9D1" stroke-width="0.755388"/>
<path d="M109.425 6.17763C108.08 5.7366 106.757 4.92069 105.412 4.92069C72.136 4.85454 38.8383 4.81044 5.56262 4.92069C2.71798 4.92069 4.94518 7.58892 4.26159 8.84586C4.15133 8.84586 4.01902 8.86791 3.90876 8.86791C3.24722 5.67044 3.86466 4.30325 7.81187 4.3253C41.5947 4.52377 75.3997 4.43556 109.183 4.47967C109.91 4.47967 111.145 3.86222 111.322 5.053C111.564 6.4643 110.109 5.82481 109.425 6.17763Z" fill="#95C7DB" stroke="#95C7DB" stroke-width="0.755388"/>
<path d="M3.93221 88.2094C4.13067 90.194 4.30708 92.1786 4.50555 94.1633C4.41734 95.5084 4.24093 96.8535 4.24093 98.1987C4.21888 116.81 4.21888 135.422 4.24093 154.033C4.24093 154.452 4.48349 154.871 4.6158 155.29C4.37324 155.533 4.13067 155.775 3.91016 156.018C3.91016 133.415 3.93221 110.812 3.93221 88.2094Z" fill="#9B8BC1"/>
<path d="M99.0391 14.9986C99.3257 14.7119 99.6124 14.4252 99.9211 14.1165C99.6124 14.4032 99.3257 14.6899 99.0391 14.9986Z" fill="#95C7DB"/>
<path d="M4.61798 155.29C4.48567 154.871 4.2431 154.452 4.2431 154.033C4.22105 135.421 4.22105 116.81 4.2431 98.1986C4.2431 96.8534 4.41951 95.5083 4.50772 94.1632C12.8211 93.9206 21.1786 92.9283 29.4038 93.6339C37.0116 94.2955 40.8927 90.1277 44.8178 85.122C44.9281 85.1 45.0604 85.0779 45.1707 85.0338C46.7143 84.4605 47.442 85.3426 48.7871 86.1364C54.0133 89.1795 59.7026 87.6139 64.7083 85.1882C68.0601 83.5784 70.3534 84.5267 71.5222 87.0185C74.5653 93.6119 73.2422 100.867 74.036 107.813C74.9402 115.619 70.2211 113.745 66.1857 113.767C63.4954 113.789 60.8272 113.811 58.1369 113.745C57.5636 113.723 56.902 113.48 56.461 113.105C53.4841 110.724 49.9779 113.613 46.9348 112.113C43.6712 110.503 41.4881 114.561 38.4891 113.679C37.5629 113.414 36.8793 111.628 36.0854 111.65C31.3223 111.738 26.5151 111.76 22.4797 115.068C20.7376 116.501 17.8048 116.81 17.6725 119.677C17.4519 124.109 17.496 128.563 17.5181 132.996C17.5401 137.075 17.5843 137.075 19.9217 137.913C20.054 137.957 20.087 138.292 20.1532 138.491C17.3747 141.423 14.6073 144.352 11.8288 147.263C9.4252 149.953 7.02159 152.622 4.61798 155.29Z" fill="#6E5EA6" stroke="#6E5EA6" stroke-width="0.755388"/>
<path d="M20.142 138.509C20.0758 138.31 20.0538 137.979 19.9215 137.935C17.584 137.097 17.5399 137.119 17.5179 133.018C17.4958 128.586 17.4737 124.131 17.6722 119.699C17.8045 116.832 20.7374 116.523 22.4794 115.09C26.5149 111.782 31.3221 111.738 36.0852 111.672C36.857 111.65 37.5627 113.436 38.4888 113.701C41.4878 114.583 43.6709 110.525 46.9345 112.135C49.9556 113.635 53.4838 110.746 56.4608 113.127C56.9018 113.48 57.5633 113.745 58.1367 113.767C60.827 113.833 63.4952 113.811 66.1855 113.789C70.2209 113.767 74.9179 115.641 74.0358 107.835C73.2419 100.889 74.565 93.634 71.5219 87.0406C70.3753 84.5487 68.0598 83.6005 64.708 85.2103C59.7023 87.636 54.0131 89.2016 48.7869 86.1585C47.4417 85.3647 46.714 84.4826 45.1704 85.0559C46.0745 82.3215 46.9759 79.5455 47.88 76.8111C48.0344 76.767 48.1934 76.7423 48.3478 76.6982C52.1847 77.007 56.1726 75.9652 59.8111 78.0601C60.6932 78.1924 61.5812 78.349 62.4633 78.4813C63.0587 79.4957 74.5709 79.8359 75.6554 78.9086C76.5375 78.3132 77.4566 77.6752 78.3386 77.0798C80.4115 89.583 79.9015 102.3 80.563 114.892C76.682 116.06 73.0655 117.78 69.9783 120.471C66.2737 120.316 62.4808 120.537 58.8644 119.897C53.7043 118.993 49.7351 121.22 45.7437 123.756C44.0899 124.793 42.2817 125.057 40.5396 124.55C34.5636 122.852 29.1169 126.491 29.4257 132.533C29.6462 136.59 29.1169 138.994 24.2656 137.627C23.2733 137.34 22.0605 137.803 20.9579 137.913C20.6933 138.09 20.4066 138.288 20.142 138.509Z" fill="#797AAA" stroke="#797AAA" stroke-width="0.755388"/>
<path d="M20.9766 137.891C22.0791 137.781 23.292 137.318 24.2843 137.605C29.1577 138.972 29.6648 136.59 29.4443 132.511C29.1356 126.469 34.5603 122.83 40.5583 124.528C42.3003 125.035 44.1086 124.771 45.7624 123.734C49.7537 121.22 53.723 118.971 58.8831 119.875C62.4995 120.515 66.2924 120.294 69.997 120.448C67.7919 122.036 65.5647 123.646 63.3595 125.234C62.5877 125.697 61.838 126.16 61.0662 126.601C59.0374 126.557 59.0595 129.203 58.1554 129.423C53.5686 130.592 51.6943 134.914 48.2322 137.296C47.8794 136.656 47.6368 136.48 46.7988 136.943C45.4978 137.649 43.9983 138.288 42.5429 138.354C35.8834 138.641 29.2459 138.729 22.5863 138.795C22.035 138.817 21.5058 138.2 20.9766 137.891Z" fill="#A29EA1" stroke="#A29EA1" stroke-width="0.755388"/>
<path d="M95.0274 97.8677C101.025 98.3528 106.274 96.4123 110.816 92.5974C112.161 91.4727 113.617 91.8917 115.072 91.7153C116.704 91.5168 118.711 92.5974 119.835 90.4584C120.122 92.9281 121.004 95.5082 120.519 97.8015C120.034 100.029 117.255 98.882 115.535 99.1687C112.426 99.6979 110.309 101.374 108.28 103.645C107.045 105.012 105.039 105.63 103.561 106.776C98.1587 110.988 91.7638 106.843 86.1406 108.982C89.0735 105.277 92.0504 101.572 95.0274 97.8677Z" fill="#F8B570"/>
<path d="M20.9764 137.891C21.5181 138.212 22.0544 138.814 22.5837 138.792C29.2432 138.704 35.9028 138.618 42.5403 138.353C43.9957 138.287 45.491 137.654 46.7921 136.926C47.63 136.463 47.9057 136.643 48.2585 137.283C48.1262 137.459 47.9895 137.649 47.8572 137.825C45.7843 140.097 43.7336 142.39 41.6607 144.661C41.0433 145.499 40.2935 146.249 39.8745 147.175C38.6617 149.865 38.4633 146.668 37.4489 146.712C28.915 147.131 20.3425 147.145 11.8086 147.278C14.5871 144.345 17.352 141.417 20.1304 138.506C20.3951 138.286 20.6898 138.09 20.9764 137.891Z" fill="#B59259" stroke="#B59259" stroke-width="0.755388"/>
<path d="M41.6646 144.639C43.7374 142.368 45.7882 140.074 47.861 137.803C50.8159 139.325 53.0431 136.656 55.7113 136.392C58.1591 136.149 61.4447 136.502 60.717 132.092C60.4304 130.328 60.9155 128.453 61.0478 126.623C61.8196 126.16 62.5694 125.697 63.3412 125.256C63.3191 127.461 62.9663 129.732 63.2971 131.893C64.0689 136.987 59.8129 139.192 56.9683 140.868C53.418 142.963 54.0134 145.565 53.6606 148.344C53.5503 149.204 53.6606 150.108 53.6385 150.99C53.6165 151.96 53.5282 152.93 53.4841 153.879C52.7785 152.71 52.117 151.497 51.3452 150.372C50.4631 149.071 49.6913 147.065 48.5226 146.778C46.7364 146.337 44.9061 144.418 42.7671 146.116C42.4584 146.359 41.9512 147.726 41.2676 146.513C41.0912 146.072 41.5322 145.278 41.6646 144.639Z" fill="#F8B570"/>
<path d="M47.8811 76.8086C46.977 79.543 46.0949 82.2994 45.1908 85.0338C45.0806 85.0559 44.9483 85.0779 44.838 85.122C31.3205 86.6877 17.7808 86.0261 4.24124 85.541C3.33713 80.9322 4.92484 79.3886 9.84232 79.7194C17.4942 80.2486 25.2563 80.3369 32.7538 78.3963C34.4518 77.9553 37.0538 77.845 37.8477 75.3753C37.8697 75.3091 38.0462 75.265 38.0462 75.265C40.7144 79.7194 44.6395 76.1912 47.8811 76.8086Z" fill="#A29EA1" stroke="#A29EA1" stroke-width="0.755388"/>
<path d="M75.6659 78.9034C74.7177 79.8736 63.0745 79.4987 62.457 78.4844C66.8673 78.6167 71.2776 78.771 75.6659 78.9034Z" fill="#7D89C1" stroke="#7D89C1" stroke-width="0.755388"/>
<path d="M62.4548 78.4848C61.5727 78.3525 60.6907 78.1981 59.8086 78.0658C60.6907 78.1981 61.5727 78.3525 62.4548 78.4848Z" fill="#7D89C1"/>
</g>
</svg>
